<svg xmlns="http://www.w3.org/2000/svg" preserveAspectRatio="none" viewBox="0 0 71 21"><defs><style>.cls-1{fill:#1ed16a}.cls-1,.cls-2,.cls-3{fill-rule:evenodd}.cls-2{fill:#0cb754}.cls-3{fill:#049b44}</style></defs><path class="cls-1" d="M59 6l6-6 6 6-6 6z"/><path class="cls-2" d="M2 0h63v4a1.92 1.92 0 0 0 2 2h4v13a2 2 0 0 1-2 2H2a2 2 0 0 1-2-2V2a2 2 0 0 1 2-2z"/><path class="cls-3" d="M66 6.02h5V11z"/><path class="cls-1" d="M75 32l10-10 10 10-10 10z"/><path class="cls-2" d="M2 22h82.96l.04 8a1.92 1.92 0 0 0 2 2l8-.02V50a2 2 0 0 1-2 2H2a2 2 0 0 1-2-2V24a2 2 0 0 1 2-2z"/><path class="cls-3" d="M86.03 32.03H95V41z"/></svg>